<svg width="32" height="32" viewBox="0 0 32 32" fill="none" xmlns="http://www.w3.org/2000/svg">
<path fill-rule="evenodd" clip-rule="evenodd" d="M6.63998 15.71C6.63998 15.7577 6.62102 15.8035 6.58726 15.8373C6.5535 15.871 6.50772 15.89 6.45998 15.89H3.21998C3.19346 15.8943 3.16634 15.8929 3.1404 15.8859C3.11446 15.8789 3.09031 15.8665 3.06952 15.8495C3.04873 15.8324 3.03178 15.8112 3.01979 15.7872C3.00781 15.7631 3.00106 15.7368 2.99998 15.71V7.88C3.0024 7.83304 3.02213 7.78865 3.05538 7.7554C3.08863 7.72215 3.13302 7.70241 3.17998 7.7H6.45998C6.484 7.69854 6.50806 7.7022 6.53056 7.71073C6.55306 7.71925 6.57349 7.73246 6.5905 7.74948C6.60752 7.76649 6.62073 7.78693 6.62926 7.80943C6.63779 7.83193 6.64144 7.85598 6.63998 7.88V9.52H7.63998V7.29C7.64266 7.20429 7.62809 7.11891 7.59713 7.03894C7.56617 6.95896 7.51945 6.88603 7.45975 6.82447C7.40005 6.7629 7.32859 6.71396 7.24961 6.68056C7.17063 6.64715 7.08574 6.62996 6.99998 6.63H2.62998C2.54466 6.6299 2.46021 6.64714 2.38176 6.68066C2.3033 6.71418 2.23246 6.76328 2.17355 6.825C2.11464 6.88672 2.06888 6.95975 2.03905 7.03969C2.00921 7.11962 1.99592 7.20478 1.99998 7.29V16.29C1.99863 16.3731 2.014 16.4556 2.04518 16.5327C2.07637 16.6097 2.12272 16.6797 2.18149 16.7385C2.24027 16.7973 2.31026 16.8436 2.3873 16.8748C2.46435 16.906 2.54688 16.9214 2.62998 16.92H3.99998V27H5.67998V17H6.99998C7.08486 17.0027 7.16942 16.9884 7.24874 16.9581C7.32805 16.9277 7.40053 16.8819 7.46196 16.8233C7.52339 16.7646 7.57253 16.6944 7.60653 16.6165C7.64053 16.5387 7.6587 16.4549 7.65998 16.37V13.1H6.63998V15.71ZM20.2 9C20.5717 8.87238 20.8975 8.6381 21.1368 8.32641C21.3761 8.01472 21.5183 7.63944 21.5456 7.24742C21.573 6.8554 21.4842 6.46402 21.2904 6.12215C21.0966 5.78029 20.8064 5.50308 20.456 5.32515C20.1057 5.14723 19.7106 5.07646 19.3203 5.12169C18.9299 5.16693 18.5615 5.32616 18.2611 5.5795C17.9607 5.83284 17.7416 6.16906 17.6311 6.54618C17.5207 6.92331 17.5237 7.32462 17.64 7.7C17.8136 8.2072 18.1782 8.62673 18.6562 8.86946C19.1342 9.1122 19.688 9.15903 20.2 9ZM29.12 16.78C27.5 16.53 25.52 16.15 25.12 16C24.89 15.85 23.6 14.55 23.6 14.55L22.6 10.93C23.72 11.16 24.07 11.82 24.6 13.11C24.6651 13.2708 24.7796 13.4069 24.9269 13.4985C25.0743 13.5902 25.2469 13.6327 25.42 13.62C25.4906 13.6167 25.5593 13.5961 25.62 13.56C25.7175 13.5263 25.8074 13.4737 25.8844 13.4051C25.9614 13.3364 26.0241 13.2532 26.0687 13.1602C26.1134 13.0672 26.1391 12.9663 26.1445 12.8632C26.1499 12.7602 26.1347 12.6571 26.1 12.56C24.73 8.28 20.1 9.34 20.1 9.34C19.0482 9.58882 17.9468 9.52628 16.93 9.16C16.75 9 16.63 8 16 6.68C16 6.68 14.08 3.59 14.36 7.01C14.4633 8.21101 14.9308 9.35185 15.7 10.28C16.5505 10.8939 17.5964 11.1749 18.64 11.07L20.03 15.63C20.03 15.63 20.03 18.24 20.16 18.9C20.24 19.18 20.39 19.9 23.56 22.45C23.665 22.5364 23.7866 22.6005 23.9173 22.6384C24.048 22.6762 24.185 22.687 24.32 22.67C24.5965 22.6386 24.8505 22.5027 25.03 22.29C25.2003 22.0709 25.277 21.7933 25.2433 21.5179C25.2096 21.2424 25.0682 20.9915 24.85 20.82C23.8 20 22.2 18.4 22.2 18.4C22.2 18.4 22.15 17.23 22.2 16.34C22.2 16.24 22.35 16.19 22.4 16.27C22.9454 16.8403 23.5301 17.3716 24.15 17.86C25.6825 18.3244 27.2513 18.6589 28.84 18.86C28.9225 18.8764 29.0075 18.8764 29.09 18.86C29.3632 18.8666 29.6278 18.7645 29.8256 18.576C30.0235 18.3875 30.1384 18.1282 30.145 17.855C30.1516 17.5818 30.0495 17.3172 29.861 17.1194C29.6725 16.9215 29.4132 16.8066 29.14 16.8L29.12 16.78ZM15.51 11H7.50998V11.23H6.83998V11.87H7.52998V12.14H8.10998L8.63998 15.29L9.13998 18.29H9.39998L9.21998 17.2L9.41998 17.05L10.33 17.71L9.97998 18.04V18.31L10.56 17.86L11.32 18.34V18.11L10.74 17.71L11.5 17.17L12.31 17.71L12 18V18.35L12.64 17.87L13.17 18.27V18L12.86 17.75L13.7 17.19L13.88 17.32L13.73 18.32H13.98L14.98 12.18H15.54L15.51 11ZM9.90998 12.14H10.72L11.23 12.47L10.36 13.08L9.42998 12.45L9.90998 12.14ZM9.19998 12.3L8.99998 12.13H9.47998L9.19998 12.3ZM11.68 12.5L12.19 12.14H12.92L13.43 12.5L12.57 13.11L11.68 12.5ZM12.34 13.26L11.48 13.87L10.57 13.23L11.46 12.65L12.34 13.26ZM11.46 12.32L11.18 12.14H11.76L11.46 12.32ZM11.25 14L10.36 14.61L9.44998 14L10.36 13.39L11.25 14ZM10.36 14.91L11.2 15.5L10.34 16.1L9.47998 15.52L10.36 14.91ZM10.59 14.76L11.48 14.15L12.27 14.71L11.4 15.34L10.59 14.76ZM12.49 14.86L13.43 15.52L12.57 16.13L11.63 15.5L12.49 14.86ZM12.49 14.56L11.68 14L12.57 13.39L13.36 13.92L12.49 14.56ZM12.77 13.24L13.66 12.63L14.42 13.16L13.56 13.77L12.77 13.24ZM13.38 12.12H13.94L13.66 12.3L13.38 12.12ZM8.37998 12.12H8.54998L9.03998 12.43L8.49998 12.81L8.37998 12.12ZM8.54998 13.06L9.23998 12.58L10.18 13.21L9.25998 13.85L8.60998 13.39L8.54998 13.06ZM8.65998 13.72L8.99998 14L8.69998 14.2L8.65998 13.72ZM8.77998 14.43L9.22998 14.12L10.15 14.73L9.25998 15.34L8.87998 15.09L8.77998 14.43ZM8.98998 15.43L9.05998 15.51H8.98998V15.43ZM9.19998 17V16.92L9.24998 16.97L9.19998 17ZM9.44998 16.8L9.11998 16.57L8.99998 15.89L9.26998 15.71L10.14 16.27L9.44998 16.8ZM10.59 17.63L9.67998 16.97L10.36 16.47L11.36 17.1L10.59 17.63ZM11.53 16.95L10.53 16.32L11.36 15.71L12.36 16.34L11.53 16.95ZM12.6 17.63L11.76 17.1L12.6 16.49L13.43 17.08L12.6 17.63ZM13.89 16.72L13.61 16.92L12.75 16.34L13.61 15.73L14.02 16.01L13.89 16.72ZM14.07 15.72L13.84 15.55L14.12 15.34L14.07 15.72ZM14.19 14.99L13.61 15.39L12.67 14.76L13.51 14.15L14.24 14.66L14.19 14.99ZM14.29 14.38L13.74 13.97L14.45 13.47L14.29 14.38ZM14.57 13L13.89 12.54L14.4 12.18H14.7L14.57 13ZM13.31 8.61C13.306 8.92316 13.2097 9.22819 13.033 9.4868C12.8564 9.74541 12.6073 9.9461 12.317 10.0637C12.0267 10.1812 11.7082 10.2105 11.4014 10.1477C11.0945 10.0849 10.8131 9.93291 10.5923 9.71076C10.3715 9.48861 10.2213 9.20622 10.1604 8.899C10.0996 8.59178 10.1308 8.27343 10.2502 7.98389C10.3695 7.69435 10.5718 7.44651 10.8315 7.27147C11.0912 7.09644 11.3968 7.00199 11.71 7C12.13 6.99733 12.5339 7.16092 12.8337 7.45508C13.1335 7.74923 13.3047 8.15004 13.31 8.57V8.61Z" fill="#4A5568"/>
</svg>
