<svg width="32" height="32" viewBox="0 0 32 32" fill="none" xmlns="http://www.w3.org/2000/svg">
<path d="M24.54 13.28C23.8941 13.2818 23.2538 13.4004 22.65 13.63L20.86 9.84C20.8464 9.7968 20.8448 9.75073 20.8554 9.7067C20.866 9.66266 20.8883 9.62233 20.92 9.59L22.12 8.59C22.1751 8.5503 22.2195 8.49754 22.2492 8.43645C22.2789 8.37536 22.2929 8.30785 22.29 8.24C22.287 8.17355 22.2693 8.10859 22.2382 8.04979C22.2071 7.991 22.1633 7.93984 22.11 7.9L22 7.83C21.8946 7.75508 21.7693 7.7133 21.64 7.71C21.5055 7.70988 21.3749 7.75574 21.27 7.84L19.92 8.9L19.69 9.07C19.6313 9.11199 19.5865 9.17068 19.5615 9.23845C19.5365 9.30621 19.5325 9.37992 19.55 9.45C19.55 9.5 19.55 9.57 19.63 9.66L19.79 10.01C19.7953 10.0209 19.7981 10.0329 19.7981 10.045C19.7981 10.0571 19.7953 10.0691 19.79 10.08C19.7736 10.0842 19.7564 10.0842 19.74 10.08L12.46 12.24C12.4332 12.2392 12.4072 12.2302 12.3857 12.2141C12.3642 12.1979 12.3483 12.1756 12.34 12.15L11.64 10.08C11.6014 9.97472 11.5358 9.88144 11.4498 9.80948C11.3638 9.73752 11.2604 9.68943 11.15 9.67L11.39 9.61C11.4602 9.59334 11.5232 9.55482 11.57 9.5C11.8195 9.34221 12.0985 9.23674 12.39 9.19C12.5637 9.16243 12.7344 9.11892 12.9 9.06C12.9695 9.03863 13.0304 8.99554 13.0736 8.93704C13.1168 8.87855 13.1401 8.80773 13.1401 8.735C13.1401 8.66227 13.1168 8.59145 13.0736 8.53296C13.0304 8.47446 12.9695 8.43136 12.9 8.41C12.7465 8.34344 12.5852 8.2964 12.42 8.27H12.26C11.7097 8.42394 11.1414 8.50464 10.57 8.51C10.2806 8.51785 9.99149 8.48759 9.71002 8.42H9.46002C9.3417 8.40793 9.22224 8.42537 9.1123 8.47074C9.00237 8.51611 8.90538 8.588 8.83002 8.68C8.77286 8.76395 8.7336 8.85877 8.71467 8.95856C8.69575 9.05834 8.69757 9.16095 8.72002 9.26C8.71331 9.33281 8.72235 9.40621 8.7465 9.47523C8.77066 9.54424 8.80937 9.60726 8.86002 9.66C8.9888 9.76588 9.13731 9.84514 9.29695 9.89321C9.45659 9.94127 9.62418 9.95718 9.79002 9.94C9.95639 9.95391 10.1236 9.95391 10.29 9.94L10.69 9.84C10.6601 9.89888 10.6446 9.96397 10.6446 10.03C10.6446 10.096 10.6601 10.1611 10.69 10.22L11.89 13.81C11.9014 13.8637 11.9011 13.9192 11.889 13.9727C11.8769 14.0262 11.8534 14.0764 11.82 14.12L11.21 14.69C10.2119 13.7646 8.90111 13.2503 7.54002 13.25C6.47441 13.2394 5.42859 13.538 4.52924 14.1096C3.62989 14.6813 2.91561 15.5015 2.47294 16.4709C2.03026 17.4402 1.87818 18.5172 2.03512 19.5712C2.19206 20.6252 2.65129 21.6111 3.35717 22.4095C4.06305 23.2078 4.98529 23.7844 6.01217 24.0692C7.03905 24.3541 8.1265 24.3351 9.14279 24.0144C10.1591 23.6938 11.0606 23.0854 11.7381 22.2628C12.4156 21.4403 12.8401 20.4389 12.96 19.38H13.57C13.6463 19.3903 13.7237 19.3903 13.8 19.38C14.1698 19.3701 14.5255 19.2363 14.81 19L20.61 11.84L21.61 14.1C20.8379 14.6019 20.2024 15.2876 19.7608 16.0958C19.3192 16.9039 19.0853 17.8091 19.08 18.73C19.0879 19.8081 19.4148 20.8598 20.0196 21.7524C20.6243 22.6451 21.4798 23.3386 22.4781 23.7458C23.4765 24.1529 24.573 24.2553 25.6295 24.0402C26.686 23.825 27.6551 23.3018 28.4147 22.5367C29.1743 21.7715 29.6904 20.7986 29.8978 19.7406C30.1053 18.6825 29.9949 17.5868 29.5805 16.5914C29.1661 15.5961 28.4662 14.7457 27.5692 14.1475C26.6722 13.5493 25.6182 13.23 24.54 13.23V13.28ZM7.46002 23C6.37242 22.9471 5.34685 22.4779 4.59582 21.6894C3.84479 20.901 3.42587 19.8539 3.42587 18.765C3.42587 17.6761 3.84479 16.629 4.59582 15.8406C5.34685 15.0521 6.37242 14.5829 7.46002 14.53C8.46723 14.5211 9.44377 14.8762 10.21 15.53L8.06002 17.53C7.82732 17.4103 7.56355 17.3649 7.30422 17.3997C7.0449 17.4346 6.80248 17.548 6.60962 17.7249C6.41676 17.9017 6.28273 18.1334 6.22558 18.3887C6.16843 18.6441 6.1909 18.9108 6.28997 19.153C6.38905 19.3951 6.55996 19.6011 6.77968 19.7432C6.99941 19.8853 7.2574 19.9566 7.5189 19.9476C7.7804 19.9385 8.03285 19.8496 8.24224 19.6926C8.45163 19.5357 8.6079 19.3184 8.69002 19.07L11.62 19.22C11.5162 20.2527 11.0337 21.2105 10.2655 21.9085C9.49737 22.6065 8.49794 22.9953 7.46002 23ZM10.88 16.31C11.2974 16.9013 11.5557 17.59 11.63 18.31L8.93002 18.17L10.88 16.31ZM12.88 18.4C12.8201 17.3128 12.4371 16.2682 11.78 15.4L12.19 14.99L13.31 18.39L12.88 18.4ZM13.07 14.4C13.0577 14.3457 13.0586 14.2892 13.0725 14.2353C13.0864 14.1814 13.113 14.1316 13.15 14.09L14.57 12.79C14.7017 12.703 14.8471 12.6388 15 12.6L19.08 11.39L14.08 17.67L13.07 14.4ZM24.54 23C23.6446 22.9894 22.7755 22.6955 22.0573 22.1605C21.3392 21.6256 20.8089 20.8769 20.5424 20.022C20.2759 19.167 20.287 18.2497 20.574 17.4014C20.861 16.5531 21.4092 15.8175 22.14 15.3L23.35 18C23.3711 18.0431 23.4019 18.0808 23.44 18.11C23.3251 18.3003 23.2629 18.5177 23.26 18.74C23.26 18.9932 23.3351 19.2406 23.4757 19.4511C23.6164 19.6616 23.8163 19.8257 24.0502 19.9226C24.2841 20.0194 24.5414 20.0448 24.7897 19.9954C25.038 19.946 25.2661 19.8241 25.4451 19.6451C25.6241 19.4661 25.746 19.238 25.7954 18.9897C25.8448 18.7414 25.8195 18.4841 25.7226 18.2502C25.6257 18.0163 25.4616 17.8164 25.2511 17.6757C25.0406 17.5351 24.7932 17.46 24.54 17.46H24.46C24.4647 17.4437 24.4647 17.4263 24.46 17.41L23.2 14.73C23.6342 14.5793 24.0904 14.5016 24.55 14.5C25.6376 14.5529 26.6632 15.0221 27.4142 15.8106C28.1652 16.599 28.5842 17.6461 28.5842 18.735C28.5842 19.8239 28.1652 20.871 27.4142 21.6594C26.6632 22.4479 25.6376 22.9171 24.55 22.97L24.54 23Z" fill="#4A5568"/>
</svg>
