<svg width="32" height="32" viewBox="0 0 32 32" fill="none" xmlns="http://www.w3.org/2000/svg">
<path d="M18.0468 7.24923C19.4544 7.24923 20.5964 6.07362 20.5964 4.62462C20.5964 3.17561 19.4544 2 18.0468 2C16.6392 2 15.4972 3.17561 15.4972 4.62462C15.4972 6.07362 16.6392 7.24923 18.0468 7.24923ZM23.0663 15.4019L21.8287 14.7567L21.3134 13.1491C20.5326 10.7104 18.3549 9.00444 15.885 8.99897C13.9728 8.99351 12.9158 9.55124 10.9293 10.3769C9.78195 10.8526 8.8418 11.7548 8.28939 12.9031L7.93351 13.6467C7.51921 14.5107 7.85384 15.5605 8.68776 15.9925C9.51637 16.4244 10.5256 16.0745 10.9452 15.2106L11.3011 14.4669C11.487 14.0842 11.795 13.7834 12.1775 13.6249L13.601 13.0343L12.7936 16.3534C12.5174 17.4907 12.8149 18.6991 13.5851 19.5685L16.7667 23.1446C17.1491 23.5765 17.42 24.096 17.5581 24.6592L18.5302 28.6672C18.7586 29.6022 19.6828 30.1763 20.5911 29.9412C21.4993 29.7061 22.0571 28.7547 21.8287 27.8197L20.6495 22.9532C20.5114 22.39 20.2405 21.8651 19.8581 21.4386L17.4413 18.721L18.3549 14.9645L18.647 15.8667C18.9285 16.7471 19.5341 17.4743 20.3308 17.8899L21.5684 18.5351C22.397 18.967 23.4062 18.6171 23.8258 17.7532C24.2348 16.8947 23.9002 15.8339 23.0663 15.4019ZM10.908 23.0953C10.738 23.5382 10.4831 23.9374 10.1538 24.271L7.49796 27.0104C6.83401 27.6939 6.83401 28.8039 7.49796 29.4874C8.16191 30.1709 9.23486 30.1709 9.89881 29.4874L13.0539 26.2394C13.3779 25.9059 13.6329 25.5067 13.8081 25.0638L14.5252 23.2156C11.5879 19.9185 12.4696 20.93 12.0075 20.2794L10.908 23.0953Z" fill="#4A5568"/>
</svg>
