<svg width="32" height="32" viewBox="0 0 32 32" fill="none" xmlns="http://www.w3.org/2000/svg">
<path fill-rule="evenodd" clip-rule="evenodd" d="M20.63 8.22C21.2442 8.21605 21.8435 8.0303 22.3523 7.68617C22.8611 7.34205 23.2566 6.85497 23.489 6.28635C23.7213 5.71774 23.78 5.09306 23.6578 4.4911C23.5355 3.88914 23.2378 3.33687 22.802 2.90392C22.3663 2.47098 21.8121 2.17676 21.2094 2.05837C20.6067 1.93999 19.9824 2.00273 19.4153 2.2387C18.8482 2.47466 18.3636 2.87328 18.0228 3.38427C17.6819 3.89527 17.5 4.49575 17.5 5.11C17.5 5.5201 17.5811 5.92615 17.7386 6.30478C17.8962 6.68341 18.127 7.02715 18.4179 7.3162C18.7089 7.60525 19.0541 7.83392 19.4337 7.98903C19.8133 8.14414 20.2199 8.22264 20.63 8.22ZM26.22 8.65C24.43 11.16 22.03 11.44 19.46 9.93C19.29 9.81 18.46 9.39 18.32 9.27C14.19 6.82 10.05 7.79 7.31999 11.67C6.14999 13.32 8.85999 14.89 10.03 13.27C10.5315 12.3763 11.3305 11.6867 12.2879 11.3213C13.2453 10.9558 14.3006 10.9377 15.27 11.27C14.27 13.04 13.36 14.8 12.11 17.27C10.86 19.74 7.99999 21.82 5.37999 20.28C5.19811 20.1638 4.99512 20.0845 4.7826 20.0468C4.57009 20.009 4.35222 20.0134 4.14143 20.0599C3.93065 20.1063 3.73107 20.1938 3.55409 20.3173C3.37711 20.4409 3.22621 20.5981 3.10999 20.78C2.99377 20.9619 2.91451 21.1649 2.87674 21.3774C2.83897 21.5899 2.84343 21.8078 2.88986 22.0186C2.93629 22.2293 3.02378 22.4289 3.14734 22.6059C3.2709 22.7829 3.42811 22.9338 3.60999 23.05C5.25656 23.9847 7.18406 24.2969 9.04149 23.9298C10.8989 23.5627 12.5627 22.5408 13.73 21.05C13.7944 21.1081 13.8743 21.1463 13.96 21.16C15.6988 21.8891 17.3304 22.8512 18.81 24.02C19.52 24.62 20.75 27.61 21.46 29.09C22.35 30.92 25.2 29.61 24.31 27.78C23.42 25.95 22.12 22.68 21.03 21.78C19.7887 20.7478 18.4489 19.8401 17.03 19.07C17.97 17.19 19.03 15.36 20.03 13.54C23.4 14.54 26.59 13.37 28.87 10.17C30.1 8.59 27.39 7 26.22 8.65Z" fill="#4A5568"/>
</svg>
