<svg width="32" height="32" viewBox="0 0 32 32" fill="none" xmlns="http://www.w3.org/2000/svg">
<path fill-rule="evenodd" clip-rule="evenodd" d="M28 4.85C26.6839 3.56048 24.9125 2.84185 23.07 2.85C21.2275 2.84185 19.4561 3.56048 18.14 4.85C17.4877 5.45615 16.964 6.18732 16.6 7C16.2306 7.83111 16.0397 8.73049 16.0397 9.64C16.0397 10.5495 16.2306 11.4489 16.6 12.28C16.9435 13.0886 17.4509 13.8172 18.09 14.42C18.7264 15.046 19.481 15.5389 20.31 15.87C21.168 16.2298 22.0896 16.4135 23.02 16.41C23.9536 16.4132 24.8784 16.2296 25.74 15.87C26.5816 15.5451 27.35 15.0556 28 14.43C28.6403 13.8086 29.1477 13.0636 29.4915 12.2402C29.8353 11.4168 30.0083 10.5322 30 9.64C30.0044 8.73111 29.817 7.83151 29.45 7C29.1048 6.19928 28.613 5.4701 28 4.85ZM19.2 4.4L19.4 4.25C19.7452 4.02393 20.1141 3.83615 20.5 3.69C21.2946 3.36813 22.1427 3.19851 23 3.19C23.5944 3.18707 24.1864 3.26443 24.76 3.42C24.3921 3.56926 24.0535 3.78256 23.76 4.05C23.3775 4.01505 22.9925 4.01505 22.61 4.05C22.0897 4.10508 21.5768 4.21571 21.08 4.38C20.7133 4.4964 20.3611 4.65408 20.03 4.85L19 4.48C19 4.48 19.1 4.42 19.12 4.4H19.2ZM25.56 6.09L24.36 9.26L21.51 9.78C19.84 8.16 18.29 7.57 20 5.39C20.4019 5.12929 20.8354 4.92094 21.29 4.77C21.746 4.61293 22.2195 4.51219 22.7 4.47C23.0825 4.43499 23.4675 4.43499 23.85 4.47L25.56 6.09ZM16.62 9.41C16.5382 9.88215 16.5213 10.3633 16.57 10.84L16.42 10.55C16.3832 10.2481 16.3665 9.94411 16.37 9.64C16.3854 8.72464 16.6004 7.82367 17 7C16.9699 7.40277 16.9699 7.80723 17 8.21C16.8426 8.60652 16.7286 9.01893 16.66 9.44L16.62 9.41ZM17.19 11.89C17.1059 11.5615 17.0457 11.2273 17.01 10.89C16.9498 10.4219 16.9498 9.94807 17.01 9.48C17.064 9.13797 17.1545 8.80271 17.28 8.48C19.04 7.03 19.65 8.63 21.08 10.07L20.83 12.61C18.74 13.3 18.55 13.85 17.15 11.89H17.19ZM21.78 16C21.2103 15.8919 20.6561 15.7139 20.13 15.47C19.6749 15.2575 19.2482 14.9888 18.86 14.67C19.49 13.57 17.92 14.02 21.09 13L23.73 14.11C24.21 16.11 24.29 15.91 21.78 16ZM28.49 13.32C28.1033 13.8901 27.6192 14.3877 27.06 14.79C25.06 16.14 24.56 15.58 24.16 13.99L26 12.1C28.13 11.92 28.43 11.32 28.59 13.17C28.5441 13.2149 28.5038 13.2653 28.47 13.32H28.49ZM26.05 11.67L24.73 9.43L25.92 6.26L27.61 6.37C27.9606 6.66628 28.276 7.00181 28.55 7.37C28.8829 7.80678 29.146 8.29255 29.33 8.81C28.96 11.99 28.82 11.48 26.05 11.72V11.67ZM29.4 7.85C29.258 7.57718 29.0941 7.31633 28.91 7.07C28.5906 6.67458 28.2284 6.31573 27.83 6C27.702 5.42235 27.4144 4.89224 27 4.47L27.1 4.56C27.4693 4.85537 27.8046 5.19075 28.1 5.56C28.6638 6.23331 29.0886 7.01162 29.35 7.85H29.4Z" fill="#4A5568"/>
<path fill-rule="evenodd" clip-rule="evenodd" d="M3.14 21.75L2.7 21.59L2.48 21.52L2.28 23C2.27399 23.0304 2.28 23.062 2.29678 23.0881C2.31357 23.1142 2.33981 23.1328 2.37 23.14L3.58 23.56C3.60828 23.5719 3.63985 23.5734 3.66913 23.5642C3.69842 23.5551 3.72352 23.5359 3.74 23.51L4.46 22.22L3.7 21.93C3.5 21.87 3.32 21.8 3.14 21.76V21.75ZM6.32 13C6.16 12.95 5.87 13 5.39 13.35C3.45 14.58 2.72 17.35 2.14 19.15C1.74 20.35 2.23 20.66 3.27 21.02L4.27 21.37C4.53 21.46 4.8 21.55 5.09 21.67C6.44 22.22 16.15 25.94 18.09 26.62C20.03 27.3 22.88 27.11 23.42 25.55C23.96 23.99 21.15 23.1 19.67 21.48C18.3607 20.2202 16.9073 19.1192 15.34 18.2C15.34 17.53 14.63 17.2 14.34 17.12H14.25C14.25 16.33 13.04 15.9 13.04 15.9L10.64 12.4C10.5943 12.3397 10.5316 12.2945 10.46 12.27C10.4118 12.2462 10.3588 12.2338 10.305 12.2338C10.2512 12.2338 10.1982 12.2462 10.15 12.27L8.74 13.27C7.81 13.91 10.41 15.93 9.98 16.12C9.45438 16.2539 8.89937 16.2117 8.4 16C7.9341 15.8376 7.50071 15.5938 7.12 15.28C6.25 14.58 6.79 13.17 6.32 13.01V13ZM10.62 23.78C10.5969 23.7683 10.5774 23.7505 10.5638 23.7284C10.5502 23.7063 10.543 23.6809 10.543 23.655C10.543 23.6291 10.5502 23.6037 10.5638 23.5816C10.5774 23.5595 10.5969 23.5417 10.62 23.53L17 20.91C17.0393 20.8994 17.0807 20.8994 17.12 20.91L18.23 21.66C18.2509 21.671 18.2685 21.6876 18.2807 21.7078C18.2929 21.7281 18.2994 21.7513 18.2994 21.775C18.2994 21.7987 18.2929 21.8219 18.2807 21.8422C18.2685 21.8624 18.2509 21.879 18.23 21.89L12.5 24.33H12.41L10.7 23.76L10.62 23.78ZM8 21.9C7.97631 21.8901 7.95607 21.8735 7.94183 21.8521C7.9276 21.8308 7.92 21.8057 7.92 21.78C7.92 21.7543 7.9276 21.7292 7.94183 21.7079C7.95607 21.6865 7.97631 21.6699 8 21.66L14.33 19C14.3467 18.9903 14.3657 18.9853 14.385 18.9853C14.4043 18.9853 14.4233 18.9903 14.44 19L15.55 19.76C15.5688 19.7704 15.5844 19.7856 15.5953 19.8041C15.6062 19.8225 15.6119 19.8436 15.6119 19.865C15.6119 19.8864 15.6062 19.9075 15.5953 19.9259C15.5844 19.9444 15.5688 19.9596 15.55 19.97L9.79 22.48H9.7L8 21.9ZM5.29 20.2C5.26686 20.1883 5.24741 20.1705 5.23383 20.1484C5.22024 20.1263 5.21305 20.1009 5.21305 20.075C5.21305 20.0491 5.22024 20.0237 5.23383 20.0016C5.24741 19.9795 5.26686 19.9617 5.29 19.95L11.62 17.33C11.6655 17.3155 11.7145 17.3155 11.76 17.33L12.85 18.09C12.8686 18.1017 12.8839 18.1179 12.8945 18.1372C12.9051 18.1564 12.9107 18.178 12.9107 18.2C12.9107 18.222 12.9051 18.2436 12.8945 18.2628C12.8839 18.2821 12.8686 18.2983 12.85 18.31L7.11 20.76C7.09604 20.767 7.08063 20.7707 7.065 20.7707C7.04937 20.7707 7.03396 20.767 7.02 20.76L5.29 20.2ZM19.87 27.68C19.8797 27.6633 19.8847 27.6443 19.8847 27.625C19.8847 27.6057 19.8797 27.5867 19.87 27.57C19.1686 27.5581 18.4722 27.4505 17.8 27.25L17.63 28.57C17.6285 28.596 17.6355 28.6217 17.65 28.6434C17.6644 28.665 17.6855 28.6814 17.71 28.69L18.93 29.12C18.93 29.12 19.06 29.12 19.07 29.07L19.86 27.68H19.87ZM17 27L15.1 26.29L14.91 27.63C14.9102 27.6582 14.9188 27.6857 14.9349 27.7089C14.9509 27.7321 14.9736 27.7499 15 27.76L16.21 28.18C16.2324 28.1942 16.2584 28.2018 16.285 28.2018C16.3116 28.2018 16.3376 28.1942 16.36 28.18L17 27ZM7.63 23.44L5.71 22.71L5.52 24.14C5.5187 24.1674 5.52445 24.1946 5.53671 24.2191C5.54897 24.2437 5.56732 24.2646 5.59 24.28L6.82 24.71C6.83626 24.7182 6.85406 24.7229 6.87225 24.7237C6.89044 24.7246 6.9086 24.7216 6.92557 24.715C6.94254 24.7084 6.95794 24.6984 6.97076 24.6854C6.98358 24.6725 6.99354 24.657 7 24.64L7.63 23.44Z" fill="#4A5568"/>
</svg>
