<svg width="32" height="32" viewBox="0 0 32 32" fill="none" xmlns="http://www.w3.org/2000/svg">
<path fill-rule="evenodd" clip-rule="evenodd" d="M15.62 2.41C16.1081 2.41395 16.5841 2.56242 16.9878 2.83666C17.3916 3.11091 17.705 3.49863 17.8886 3.95087C18.0722 4.40312 18.1177 4.89962 18.0193 5.3777C17.921 5.85577 17.6832 6.29399 17.3359 6.63702C16.9887 6.98005 16.5477 7.21253 16.0684 7.30509C15.5892 7.39765 15.0933 7.34616 14.6433 7.15711C14.1933 6.96805 13.8094 6.64992 13.5401 6.24286C13.2708 5.83581 13.1281 5.35808 13.13 4.87C13.13 4.5444 13.1946 4.22205 13.3201 3.92161C13.4456 3.62118 13.6295 3.34865 13.8611 3.11982C14.0927 2.89099 14.3675 2.71042 14.6694 2.58857C14.9713 2.46672 15.2945 2.40602 15.62 2.41ZM21.77 7.57L18.63 11.22C17.27 7.38 16.63 8.07 12.24 6.8L5.52003 2.18C5.40076 2.09917 5.26666 2.04278 5.12547 2.0141C4.98427 1.98543 4.8388 1.98503 4.69745 2.01292C4.5561 2.04082 4.42169 2.09646 4.30198 2.17664C4.18227 2.25681 4.07964 2.35991 4.00003 2.48C3.91555 2.59712 3.85566 2.73013 3.82396 2.87102C3.79225 3.0119 3.7894 3.15775 3.81556 3.29977C3.84172 3.44179 3.89636 3.57704 3.97618 3.69738C4.05601 3.81772 4.15936 3.92066 4.28003 4L11.39 8.88C11.22 18.28 9.96003 15.22 15.39 22.35L13 28.25C12.8738 28.5618 12.8754 28.9109 13.0046 29.2215C13.1337 29.5322 13.3799 29.7795 13.69 29.91C13.8419 29.9734 14.0055 30.0041 14.17 30C14.4207 29.9965 14.6652 29.9212 14.8744 29.7829C15.0835 29.6447 15.2486 29.4493 15.35 29.22C17.23 24.6 19.46 23.4 16.43 19.45L18.18 21.06L20.91 27.47C21.0146 27.6933 21.1796 27.8829 21.3864 28.0172C21.5932 28.1515 21.8335 28.2252 22.08 28.23C22.2577 28.236 22.4337 28.1946 22.59 28.11C24.41 27.36 20.89 20.11 20.08 19.38L15.92 15.54L16.61 11.88L17.3 13.88C17.3662 14.0694 17.4834 14.2368 17.6387 14.3638C17.794 14.4909 17.9813 14.5726 18.18 14.6C18.2328 14.6105 18.2872 14.6105 18.34 14.6C19.34 14.6 22.65 10.06 23.24 9.25C23.24 9.25 24.24 8.13 23.42 7.33C22.6 6.52999 21.77 7.57 21.77 7.57Z" fill="#4A5568"/>
<path fill-rule="evenodd" clip-rule="evenodd" d="M28.19 23.31C28.1939 23.753 28.0664 24.1872 27.8236 24.5578C27.5807 24.9283 27.2335 25.2185 26.8257 25.3917C26.4179 25.5649 25.968 25.6132 25.5327 25.5307C25.0974 25.4481 24.6964 25.2384 24.3804 24.9279C24.0643 24.6175 23.8474 24.2203 23.7571 23.7865C23.6668 23.3528 23.7071 22.9021 23.873 22.4913C24.0389 22.0805 24.3228 21.7281 24.689 21.4786C25.0551 21.2292 25.487 21.094 25.93 21.09C26.5233 21.0873 27.0937 21.3191 27.5169 21.7349C27.9402 22.1506 28.1821 22.7167 28.19 23.31Z" fill="#4A5568"/>
</svg>
