<svg width="32" height="32" viewBox="0 0 32 32" fill="none" xmlns="http://www.w3.org/2000/svg">
<path fill-rule="evenodd" clip-rule="evenodd" d="M20.93 6C20.2886 5.38515 19.5394 4.89363 18.72 4.55C16.9756 3.84285 15.0244 3.84285 13.28 4.55C12.4593 4.89116 11.7097 5.38297 11.07 6C10.4283 6.62595 9.91826 7.37396 9.57 8.2C9.03148 9.44181 8.88656 10.8189 9.15476 12.1456C9.42297 13.4723 10.0914 14.6849 11.07 15.62C11.7044 16.2436 12.4553 16.7363 13.28 17.07C15.0219 17.79 16.9781 17.79 18.72 17.07C19.5447 16.7363 20.2956 16.2436 20.93 15.62C21.5694 15.0114 22.0795 14.2802 22.43 13.47C22.7926 12.6388 22.9797 11.7418 22.9797 10.835C22.9797 9.9282 22.7926 9.03116 22.43 8.2C22.078 7.37599 21.5685 6.62866 20.93 6ZM12.13 5.54C12.2012 5.5002 12.2682 5.45329 12.33 5.4C12.675 5.17074 13.0438 4.97962 13.43 4.83C14.8091 4.2871 16.3242 4.19263 17.76 4.56C17.3946 4.71842 17.0569 4.93451 16.76 5.2C16.3741 5.165 15.9859 5.165 15.6 5.2C15.0816 5.24649 14.571 5.35734 14.08 5.53C13.7327 5.65101 13.3979 5.80504 13.08 5.99L12 5.67C12 5.67 12.09 5.61 12.12 5.58L12.13 5.54ZM18.49 7.23L17.29 10.41L14.44 11C12.82 9.35 11.27 8.75 13 6.58C13.3995 6.33164 13.8299 6.13665 14.28 6C14.7386 5.85242 15.211 5.75191 15.69 5.7C16.0728 5.67001 16.4573 5.67001 16.84 5.7L18.49 7.23ZM9.6 10.6C9.53495 11.0711 9.53495 11.5489 9.6 12.02C9.54 11.91 9.5 11.82 9.45 11.74C9.41315 11.4381 9.39645 11.1341 9.4 10.83C9.3985 9.90751 9.59992 8.99597 9.99 8.16C9.95996 8.55944 9.95996 8.96057 9.99 9.36C9.81548 9.75799 9.68471 10.1738 9.6 10.6ZM10.17 13.08C10.0867 12.7513 10.0266 12.4171 9.99 12.08C9.92951 11.6119 9.92951 11.1381 9.99 10.67C10.0459 10.3284 10.1364 9.99333 10.26 9.67C12.02 8.22 12.63 9.83 14.06 11.27L13.81 13.81C11.72 14.49 11.53 15.05 10.13 13.09L10.17 13.08ZM14.76 17.18C14.1903 17.0768 13.6359 16.9021 13.11 16.66C12.6572 16.4376 12.2283 16.1695 11.83 15.86C12.47 14.75 10.9 15.21 14.07 14.18L16.71 15.29C17.19 17.29 17.27 17.1 14.71 17.18H14.76ZM21.47 14.51C21.0732 15.0907 20.5753 15.5954 20 16C18 17.35 17.5 16.79 17.1 15.2L19 13.29C21.13 13.1 21.43 12.51 21.59 14.35C21.5437 14.3983 21.5034 14.452 21.47 14.51ZM19 12.86L17.68 10.62L18.9 7.45L20.59 7.56C20.9429 7.85375 21.2586 8.18958 21.53 8.56C21.8649 8.99551 22.1282 9.48161 22.31 10C21.94 13.18 21.8 12.67 19.03 12.91L19 12.86ZM22.38 9C22.238 8.72719 22.0741 8.46633 21.89 8.22C21.5738 7.81875 21.2113 7.45624 20.81 7.14C20.6736 6.58159 20.3944 6.06817 20 5.65L20.1 5.73C20.4665 6.02842 20.8016 6.36349 21.1 6.73C21.6805 7.39236 22.1225 8.16418 22.4 9H22.38Z" fill="#4A5568"/>
<path d="M29.6 27L23.35 25.29C18.2546 23.8926 12.8713 23.9376 7.80002 25.42L2.42002 27L1.58002 24.12L7.00002 22.56C12.6024 20.9207 18.5499 20.8687 24.18 22.41L30.44 24.12L29.6 27Z" fill="#4A5568"/>
</svg>
