<svg width="32" height="32" viewBox="0 0 32 32" fill="none" xmlns="http://www.w3.org/2000/svg">
<path fill-rule="evenodd" clip-rule="evenodd" d="M24.25 14.57H23.8H23.59H16.1C16.36 12.8 19.59 13.1 20.9 12.89C22.0125 12.6715 23.0679 12.2255 24 11.58C24.79 11.0019 25.3981 10.2098 25.7525 9.29722C26.1069 8.38467 26.1927 7.38978 26 6.43C25.91 5.76 24.83 5.73 24.93 6.43C25.47 10.43 22.1 11.74 18.7 12.07C16.83 12.26 15.2 12.54 15.01 14.57H8.07998C8.04069 14.5594 7.99928 14.5594 7.95998 14.57C7.89074 14.5554 7.81922 14.5554 7.74998 14.57C6.79346 14.5665 5.85112 14.8013 5.00804 15.2531C4.16496 15.705 3.44769 16.3597 2.92096 17.1581C2.39423 17.9566 2.07464 18.8736 1.99104 19.8265C1.90743 20.7794 2.06245 21.7381 2.44209 22.616C2.82172 23.494 3.41403 24.2636 4.16554 24.8554C4.91706 25.4471 5.80411 25.8424 6.74663 26.0056C7.68914 26.1687 8.65745 26.0945 9.56414 25.7898C10.4708 25.485 11.2873 24.9593 11.94 24.26H20C20.6518 24.9584 21.467 25.4837 22.3723 25.7886C23.2776 26.0936 24.2445 26.1686 25.1859 26.0069C26.1274 25.8452 27.0139 25.4519 27.7656 24.8624C28.5173 24.2729 29.1105 23.5057 29.4919 22.6298C29.8734 21.754 30.031 20.7971 29.9506 19.8452C29.8702 18.8933 29.5543 17.9764 29.0314 17.177C28.5085 16.3775 27.7949 15.7207 26.955 15.2656C26.1151 14.8105 25.1752 14.5715 24.22 14.57H24.25ZM10.7 21C10.7 21.1618 10.6357 21.3169 10.5213 21.4313C10.4069 21.5457 10.2518 21.61 10.09 21.61H8.68998V23C8.69277 23.0809 8.6789 23.1614 8.64924 23.2367C8.61957 23.312 8.57474 23.3803 8.51753 23.4375C8.46032 23.4947 8.39195 23.5396 8.31668 23.5692C8.24141 23.5989 8.16084 23.6128 8.07998 23.61H6.90998C6.82987 23.61 6.75055 23.5942 6.67654 23.5636C6.60254 23.5329 6.53529 23.488 6.47865 23.4313C6.422 23.3747 6.37707 23.3074 6.34642 23.2334C6.31576 23.1594 6.29998 23.0801 6.29998 23V21.6H4.89998C4.73992 21.6 4.58626 21.5371 4.47214 21.4249C4.35803 21.3126 4.29261 21.16 4.28998 21V19.79C4.29256 19.629 4.35765 19.4754 4.4715 19.3615C4.58534 19.2477 4.739 19.1826 4.89998 19.18H6.29998V17.78C6.30499 17.6198 6.37087 17.4675 6.4842 17.3542C6.59753 17.2409 6.74979 17.175 6.90998 17.17H8.07998C8.24176 17.17 8.39692 17.2343 8.51132 17.3487C8.62571 17.4631 8.68998 17.6182 8.68998 17.78V19.18H10.09C10.251 19.1826 10.4046 19.2477 10.5185 19.3615C10.6323 19.4754 10.6974 19.629 10.7 19.79V21ZM23.52 21.3C23.2945 21.3 23.0783 21.2104 22.9189 21.051C22.7595 20.8916 22.67 20.6754 22.67 20.45C22.67 20.2246 22.7595 20.0084 22.9189 19.849C23.0783 19.6895 23.2945 19.6 23.52 19.6C23.7454 19.6 23.9616 19.6895 24.121 19.849C24.2804 20.0084 24.37 20.2246 24.37 20.45C24.37 20.6754 24.2804 20.8916 24.121 21.051C23.9616 21.2104 23.7454 21.3 23.52 21.3ZM25.27 23C25.0418 22.9948 24.8245 22.9012 24.6641 22.7389C24.5036 22.5765 24.4125 22.3582 24.41 22.13C24.4152 21.9054 24.5081 21.6918 24.6688 21.5348C24.8296 21.3778 25.0453 21.2899 25.27 21.29C25.4937 21.29 25.7084 21.3782 25.8675 21.5354C26.0266 21.6927 26.1173 21.9063 26.12 22.13C26.12 22.3573 26.0311 22.5756 25.8723 22.7382C25.7134 22.9008 25.4972 22.9948 25.27 23ZM25.27 19.49C25.0453 19.4901 24.8296 19.4022 24.6688 19.2452C24.5081 19.0882 24.4152 18.8746 24.41 18.65C24.4125 18.4218 24.5036 18.2034 24.6641 18.0411C24.8245 17.8788 25.0418 17.7852 25.27 17.78C25.4972 17.7852 25.7134 17.8792 25.8723 18.0418C26.0311 18.2044 26.12 18.4227 26.12 18.65C26.12 18.7612 26.0979 18.8712 26.0551 18.9738C26.0123 19.0763 25.9495 19.1694 25.8704 19.2475C25.7914 19.3257 25.6976 19.3873 25.5945 19.4289C25.4914 19.4706 25.3811 19.4913 25.27 19.49ZM27 21.26C26.7745 21.26 26.5583 21.1704 26.3989 21.011C26.2395 20.8516 26.15 20.6354 26.15 20.41C26.15 20.1846 26.2395 19.9684 26.3989 19.809C26.5583 19.6495 26.7745 19.56 27 19.56C27.2254 19.56 27.4416 19.6495 27.601 19.809C27.7604 19.9684 27.85 20.1846 27.85 20.41C27.85 20.6354 27.7604 20.8516 27.601 21.011C27.4416 21.1704 27.2254 21.26 27 21.26Z" fill="#4A5568"/>
</svg>
