<svg width="32" height="32" viewBox="0 0 32 32" fill="none" xmlns="http://www.w3.org/2000/svg">
<path d="M2.06416 30.6714H9.26291C9.82629 30.6714 10.3271 30.2332 10.3271 29.6072V25.6009C10.3271 25.0376 9.88889 24.5368 9.26291 24.5368H2.06416C1.50078 24.5368 1 24.975 1 25.6009V29.6698C1 30.2332 1.43818 30.6714 2.06416 30.6714Z" fill="#4A5568"/>
<path d="M9.5759 9.01252C11.7885 9.01252 13.5822 7.21886 13.5822 5.00626C13.5822 2.79366 11.7885 1 9.5759 1C7.3633 1 5.56964 2.79366 5.56964 5.00626C5.56964 7.21886 7.3633 9.01252 9.5759 9.01252Z" fill="#4A5568"/>
<path d="M17.4006 13.0188C17.4006 13.0188 17.4006 12.9562 17.338 12.9562C19.3412 10.0141 21.9077 7.57278 25.0376 5.75744L24.7872 26.4773C23.9734 26.6651 23.097 26.4773 22.4711 25.8513C21.0939 24.4742 18.903 24.4742 17.5258 25.8513C17.338 26.0391 17.338 26.4147 17.5258 26.6025C17.7136 26.7903 18.0892 26.7903 18.277 26.6025C19.216 25.6635 20.7183 25.6635 21.6573 26.6025C23.0344 27.9797 25.2254 27.9797 26.6025 26.6025C27.5415 25.6635 29.0438 25.6635 29.9828 26.6025C30.2332 26.7903 30.5462 26.7903 30.734 26.6025C30.9218 26.4147 30.9218 26.0391 30.734 25.8513C29.3568 24.4742 27.1659 24.4742 25.7887 25.8513C25.6636 25.9765 25.4758 26.1017 25.288 26.2269L25.5384 5.38185C25.601 5.31926 25.601 5.31926 25.6636 5.25666C26.1643 5.19406 26.3521 4.69328 26.1643 4.31769C25.9765 4.0047 25.601 3.87951 25.3506 4.0673C21.5947 6.07043 18.5274 8.76213 16.2113 12.205C16.0235 12.205 15.8357 12.205 15.6479 12.2676L12.518 13.457C12.205 13.5822 11.7668 13.5196 11.5165 13.3318L9.51332 11.7668C9.32553 11.6416 9.20033 11.4538 9.13774 11.3286C8.69955 10.5149 7.88578 9.88889 6.88421 9.7637C5.25667 9.51331 3.75432 10.6401 3.31614 12.2676L1.43821 19.9045C0.937423 21.9077 2.56497 23.9108 4.69329 23.7856H11.1409L12.831 29.482C13.144 30.5462 14.2708 31.1096 15.3349 30.6714C16.2739 30.2958 16.7121 29.2316 16.3991 28.2927L14.3334 21.3443C14.083 20.5305 13.3944 19.9671 12.518 19.9671H7.76058L9.07514 14.6463L10.9531 16.0861C11.2661 16.3365 11.7668 16.3991 12.1424 16.2739L16.4617 14.6463C17.338 14.3959 17.651 13.6448 17.4006 13.0188Z" fill="#4A5568"/>
<path d="M26.0391 28.856L25.9765 28.9186C25.0376 29.8576 23.5352 29.8576 22.5963 28.9186C21.2191 27.5415 19.0282 27.5415 17.651 28.9186C17.4632 29.1064 17.4632 29.482 17.651 29.6698C17.8388 29.8576 18.2144 29.8576 18.4022 29.6698C19.3412 28.7308 20.8435 28.7308 21.7825 29.6698C23.1596 31.0469 25.3506 31.0469 26.7277 29.6698C27.6667 28.7308 29.169 28.7308 30.108 29.6698C30.3584 29.8576 30.6714 29.8576 30.8592 29.6698C31.047 29.482 31.047 29.1064 30.8592 28.9186C29.5446 27.6041 27.4163 27.5415 26.0391 28.856Z" fill="#4A5568"/>
</svg>
