<svg width="32" height="32" viewBox="0 0 32 32" fill="none" xmlns="http://www.w3.org/2000/svg">
<path fill-rule="evenodd" clip-rule="evenodd" d="M3.26999 20.7L11.19 28.62C10.1082 29.5065 8.73419 29.9569 7.33749 29.8829C5.94079 29.8089 4.62211 29.2158 3.63999 28.22C3.11566 27.6949 2.70073 27.0709 2.41921 26.3843C2.1377 25.6977 1.99521 24.9621 1.99999 24.22C1.99375 22.9334 2.44372 21.6862 3.26999 20.7ZM4.58999 19.32L12.59 27.32L12.13 27.81L4.12999 19.81L4.58999 19.32ZM27.6 15C28.059 15.0096 28.5057 15.1502 28.8875 15.4051C29.2693 15.66 29.5704 16.0187 29.7553 16.4389C29.9402 16.8591 30.0012 17.3234 29.9312 17.7771C29.8612 18.2308 29.663 18.6551 29.36 19L16.6 25L25.87 15.73C26.0962 15.5005 26.3654 15.3179 26.6623 15.1927C26.9591 15.0674 27.2778 15.0019 27.6 15ZM23.28 10.71C23.5951 10.7057 23.9078 10.7645 24.1998 10.883C24.4918 11.0015 24.757 11.1773 24.98 11.4C25.2059 11.6249 25.3851 11.8921 25.5074 12.1864C25.6297 12.4807 25.6926 12.7963 25.6926 13.115C25.6926 13.4337 25.6297 13.7493 25.5074 14.0436C25.3851 14.3379 25.2059 14.6051 24.98 14.83L13.64 26.2L10.21 22.81L21.58 11.43C21.8036 11.2082 22.069 11.033 22.3608 10.9146C22.6527 10.7962 22.9651 10.7368 23.28 10.74V10.71ZM19 6.42C19.4779 6.41848 19.9456 6.55852 20.3441 6.82245C20.7425 7.08639 21.0539 7.4624 21.239 7.90307C21.424 8.34374 21.4744 8.82933 21.3838 9.29861C21.2932 9.7679 21.0657 10.1998 20.73 10.54L9.30999 21.91L5.91999 18.49L17.18 7.23L17.26 7.14C17.4868 6.90934 17.7578 6.72672 18.0568 6.60302C18.3557 6.47932 18.6765 6.41708 19 6.42ZM13 2.76C13.3446 2.44243 13.7739 2.23173 14.2359 2.15347C14.6979 2.07521 15.1727 2.13276 15.6026 2.31913C16.0325 2.5055 16.3991 2.81267 16.6578 3.20336C16.9165 3.59404 17.0562 4.05144 17.06 4.52C17.0633 4.83764 17.0011 5.15255 16.8772 5.44506C16.7533 5.73756 16.5704 6.00137 16.34 6.22L15.76 6.79L6.54999 16.07L13 2.76Z" fill="#4A5568"/>
</svg>
