<svg width="32" height="32" viewBox="0 0 32 32" fill="none" xmlns="http://www.w3.org/2000/svg">
<path fill-rule="evenodd" clip-rule="evenodd" d="M19.2 6.9L18.29 6C16.4891 4.41563 14.1561 3.57027 11.7583 3.63332C9.3605 3.69638 7.0751 4.66317 5.35999 6.34L4.44999 7.24C2.74161 8.9513 1.75258 11.2513 1.68564 13.6684C1.6187 16.0856 2.47894 18.4368 4.08999 20.24L4.80999 21.33C4.92999 21.48 5.08999 21.64 5.23999 21.8L5.32999 21.89C6.07487 22.6141 6.93278 23.2119 7.86999 23.66L21.55 9.94C20.9819 8.78867 20.1818 7.76727 19.2 6.94V6.9ZM29.55 11.82C29.8097 12.0508 30.0196 12.3323 30.1666 12.6472C30.3136 12.9621 30.3947 13.3037 30.405 13.651C30.4152 13.9984 30.3543 14.3442 30.2261 14.6671C30.0978 14.9901 29.9049 15.2835 29.6592 15.5292C29.4135 15.7749 29.1201 15.9678 28.7971 16.0961C28.4742 16.2243 28.1284 16.2852 27.781 16.275C27.4337 16.2647 27.0921 16.1836 26.7772 16.0366C26.4623 15.8896 26.1808 15.6798 25.95 15.42C25.518 14.9339 25.288 14.3011 25.3072 13.651C25.3263 13.001 25.5931 12.3828 26.0529 11.9229C26.5128 11.4631 27.131 11.1963 27.781 11.1772C28.4311 11.158 29.0639 11.388 29.55 11.82ZM9.13999 24.16C10.4442 24.5962 11.8299 24.7328 13.1942 24.5597C14.5584 24.3865 15.8661 23.9081 17.02 23.16L21.19 27.78C21.89 28.48 22.71 28.62 23.25 28.08L25.95 25.38C26.49 24.84 26.38 24 25.68 23.3L21 19.11C21.7648 17.9601 22.2586 16.6516 22.4439 15.2831C22.6293 13.9146 22.5014 12.5219 22.07 11.21L9.13999 24.16Z" fill="#4A5568"/>
</svg>
