<svg width="32" height="32" viewBox="0 0 32 32" fill="none" xmlns="http://www.w3.org/2000/svg">
<path fill-rule="evenodd" clip-rule="evenodd" d="M30 16C30 23.732 23.732 30 16 30C8.26801 30 2 23.732 2 16C2 8.26801 8.26801 2 16 2C23.732 2 30 8.26801 30 16ZM23.46 16C23.46 20.12 20.12 23.46 16 23.46C11.8799 23.46 8.53998 20.12 8.53998 16C8.53998 11.88 11.8799 8.54 16 8.54C20.12 8.54 23.46 11.88 23.46 16Z" fill="#4A5568"/>
<path d="M13.37 17.54C13.3755 17.0754 13.5272 16.6244 13.8037 16.251C14.0801 15.8776 14.4672 15.6008 14.91 15.46C14.5553 15.3221 14.2492 15.0824 14.0304 14.771C13.8115 14.4596 13.6896 14.0905 13.68 13.71C13.692 13.4118 13.7651 13.1192 13.8948 12.8504C14.0245 12.5816 14.2079 12.3423 14.4339 12.1473C14.6598 11.9523 14.9234 11.8058 15.2083 11.7168C15.4931 11.6278 15.7932 11.5983 16.09 11.63C16.367 11.5935 16.6486 11.6155 16.9165 11.6945C17.1845 11.7735 17.433 11.9078 17.6459 12.0887C17.8588 12.2696 18.0315 12.4931 18.1527 12.7448C18.274 12.9964 18.3412 13.2708 18.35 13.55C18.3428 13.9477 18.2172 14.3343 17.9892 14.6603C17.7612 14.9863 17.4412 15.2369 17.07 15.38C17.5088 15.5059 17.8967 15.7669 18.1786 16.126C18.4605 16.485 18.6219 16.9239 18.64 17.38C18.624 17.7054 18.542 18.024 18.3989 18.3167C18.2558 18.6093 18.0546 18.8697 17.8076 19.0821C17.5606 19.2945 17.273 19.4544 16.9622 19.552C16.6515 19.6496 16.3241 19.683 16 19.65C14.35 19.65 13.37 18.68 13.37 17.54ZM17.56 17.49C17.56 16.55 16.9 16.09 15.85 15.79C15.4679 15.8582 15.1207 16.0551 14.866 16.348C14.6113 16.6409 14.4645 17.0121 14.45 17.4C14.4423 17.6029 14.4777 17.8051 14.5537 17.9934C14.6297 18.1816 14.7447 18.3517 14.891 18.4924C15.0374 18.6331 15.2119 18.7413 15.403 18.8098C15.5941 18.8783 15.7976 18.9057 16 18.89C16.1965 18.911 16.3953 18.8905 16.5834 18.8298C16.7714 18.769 16.9447 18.6694 17.0918 18.5374C17.2388 18.4054 17.3565 18.2439 17.4372 18.0635C17.5179 17.883 17.5597 17.6877 17.56 17.49ZM14.66 13.6C14.66 14.38 15.25 14.8 16.15 15.04C16.4748 14.963 16.7661 14.7832 16.9805 14.5274C17.1949 14.2715 17.321 13.9533 17.34 13.62C17.348 13.445 17.3183 13.2704 17.2528 13.1079C17.1874 12.9454 17.0877 12.799 16.9605 12.6785C16.8334 12.558 16.6818 12.4663 16.516 12.4096C16.3503 12.3529 16.1743 12.3326 16 12.35C15.8281 12.3361 15.6552 12.3582 15.4923 12.4149C15.3294 12.4715 15.1802 12.5616 15.0541 12.6792C14.928 12.7969 14.8278 12.9395 14.7599 13.0981C14.6921 13.2566 14.658 13.4276 14.66 13.6Z" fill="#4A5568"/>
</svg>
