<svg width="32" height="32" viewBox="0 0 32 32" fill="none" xmlns="http://www.w3.org/2000/svg">
<path d="M29.8879 27.4855C29.7429 27.1715 29.4168 27.0145 29.0908 27.1111C28.9579 27.1474 28.8251 27.2198 28.7043 27.2681C23.8734 29.2971 18.8492 30.0218 13.6439 29.4058C10.2985 29.0073 7.12215 28.0532 4.10283 26.5797C3.61974 26.3503 3.23326 26.459 3.06418 26.8575C2.8951 27.2319 3.06418 27.5822 3.52312 27.8116C7.82264 29.9131 12.3637 30.9759 17.1463 31C21.3371 30.9879 25.3709 30.1667 29.2357 28.5363C29.3806 28.4759 29.5255 28.4155 29.6463 28.3309C29.9362 28.1377 30.0328 27.7995 29.8879 27.4855Z" fill="#4A5568"/>
<path d="M17.7019 5.9517C19.0666 5.9517 20.1777 4.84059 20.1777 3.47585C20.1777 2.11112 19.0666 1.00001 17.7019 1.00001C16.3371 1.00001 15.226 2.11112 15.226 3.47585C15.226 4.84059 16.3371 5.9517 17.7019 5.9517Z" fill="#4A5568"/>
<path d="M8.45065 10.5894C10.7091 10.1304 12.9796 9.6715 15.2381 9.21256V16.3261C13.8975 16.7126 12.5569 17.087 11.1801 17.3647C10.2502 17.5459 9.76708 18.6087 9.97239 19.4662C10.4434 21.3986 10.8903 23.343 11.3492 25.2875C11.8564 27.4372 15.1536 26.5435 14.6584 24.3937C14.3444 23.029 14.0183 21.6763 13.7043 20.3116C14.598 20.0942 15.4676 19.8285 16.3492 19.5749V27.6063C16.3492 28.5725 17.1342 29.3454 18.0883 29.3454C19.0545 29.3454 19.8275 28.5604 19.8275 27.6063V17.8478V16.628V9.21256C22.0859 9.6715 24.3564 10.1304 26.6149 10.5894C28.1004 10.8913 28.6077 8.59662 27.1342 8.30677C24.4893 7.76329 18.197 6.45894 18.197 6.45894V6.47102C17.9796 6.41063 17.7622 6.36232 17.5328 6.36232C17.3033 6.36232 17.0738 6.41063 16.8685 6.47102V6.45894C16.8685 6.45894 10.5883 7.76329 7.9434 8.29469C6.4579 8.59662 6.96514 10.8913 8.45065 10.5894Z" fill="#4A5568"/>
</svg>
