<svg width="32" height="32" viewBox="0 0 32 32" fill="none" xmlns="http://www.w3.org/2000/svg">
<path fill-rule="evenodd" clip-rule="evenodd" d="M12.2 4.37C12.2053 4.99417 12.4576 5.59083 12.9018 6.02939C13.346 6.46794 13.9458 6.71267 14.57 6.71C15.1926 6.70747 15.7894 6.46106 16.2325 6.02362C16.6755 5.58617 16.9295 4.99253 16.94 4.37C16.9373 3.74225 16.6868 3.14096 16.2429 2.69706C15.799 2.25317 15.1977 2.00263 14.57 2C14.2584 1.99868 13.9496 2.05907 13.6614 2.17771C13.3733 2.29634 13.1115 2.47087 12.8912 2.69121C12.6708 2.91154 12.4963 3.17334 12.3777 3.46148C12.259 3.74961 12.1986 4.05839 12.2 4.37Z" fill="#4A5568"/>
<path fill-rule="evenodd" clip-rule="evenodd" d="M7.52997 27.78L11.24 24.3C11.39 24.166 11.5089 24.0007 11.5884 23.8159C11.6678 23.6311 11.7059 23.4311 11.7 23.23V7.84999C11.7012 7.7419 11.7241 7.63514 11.7673 7.53603C11.8104 7.43691 11.873 7.34744 11.9513 7.27288C12.0296 7.19833 12.122 7.1402 12.2231 7.10192C12.3242 7.06364 12.4319 7.04598 12.54 7.04999H17.25C17.5007 7.03734 17.747 7.11944 17.94 7.27999L20.69 9.99999C20.7805 10.0775 20.8958 10.12 21.015 10.12C21.1341 10.12 21.2494 10.0775 21.34 9.99999L23.41 7.89999C23.4885 7.81708 23.583 7.75104 23.6879 7.7059C23.7928 7.66077 23.9058 7.63749 24.02 7.63749C24.1341 7.63749 24.2471 7.66077 24.352 7.7059C24.4569 7.75104 24.5515 7.81708 24.63 7.89999C24.7828 8.06583 24.8653 8.28454 24.86 8.50999C24.8571 8.72203 24.7751 8.92534 24.63 9.07999L22.11 11.61C21.9676 11.7545 21.7979 11.8693 21.6108 11.9476C21.4237 12.026 21.2228 12.0663 21.02 12.0663C20.8171 12.0663 20.6163 12.026 20.4291 11.9476C20.242 11.8693 20.0723 11.7545 19.93 11.61L17.86 9.56999C17.8403 9.5467 17.8161 9.52773 17.7887 9.5143C17.7614 9.50087 17.7315 9.49326 17.7011 9.49197C17.6707 9.49067 17.6403 9.49571 17.6119 9.50677C17.5835 9.51782 17.5577 9.53466 17.5362 9.5562C17.5146 9.57775 17.4978 9.60353 17.4867 9.63192C17.4757 9.66031 17.4706 9.69069 17.4719 9.72113C17.4732 9.75157 17.4808 9.78141 17.4943 9.80875C17.5077 9.8361 17.5267 9.86036 17.55 9.87999L19.89 12.21C20.0337 12.3586 20.2063 12.476 20.3972 12.5552C20.5882 12.6343 20.7933 12.6734 21 12.67C21.4291 12.675 21.8427 12.5096 22.15 12.21L24.33 9.99999C24.4443 10.0373 24.5474 10.1026 24.63 10.19C24.7741 10.3492 24.8558 10.5552 24.86 10.77C24.8536 10.9933 24.7726 11.2081 24.63 11.38L22.11 13.9C21.8161 14.18 21.4258 14.3362 21.02 14.3362C20.6141 14.3362 20.2238 14.18 19.93 13.9L17.4 11.41V17.41L20.77 20.89C21.3011 21.4613 21.6006 22.21 21.61 22.99V28.77C21.5818 29.0861 21.4364 29.3802 21.2023 29.5944C20.9681 29.8086 20.6623 29.9274 20.345 29.9274C20.0276 29.9274 19.7218 29.8086 19.4877 29.5944C19.2535 29.3802 19.1081 29.0861 19.08 28.77V23.38C19.0726 23.0053 18.9223 22.6476 18.66 22.38L15.6 19.18H14.23V23.73C14.2308 24.121 14.1534 24.5083 14.0023 24.869C13.8512 25.2296 13.6294 25.5564 13.35 25.83L9.24997 29.66C9.1396 29.7697 9.00846 29.8562 8.86422 29.9146C8.71999 29.973 8.56556 30.002 8.40997 30C8.23551 29.9998 8.06311 29.9623 7.9044 29.8898C7.74569 29.8174 7.60437 29.7117 7.48997 29.58C7.25541 29.3391 7.12415 29.0162 7.12415 28.68C7.12415 28.3438 7.25541 28.0209 7.48997 27.78H7.52997Z" fill="#4A5568"/>
</svg>
