<svg width="32" height="32" viewBox="0 0 32 32" fill="none" xmlns="http://www.w3.org/2000/svg">
<path d="M28.09 27.86C28.0139 27.766 27.9079 27.7009 27.7897 27.6754C27.6715 27.6499 27.5481 27.6657 27.44 27.72L23.64 23.06C23.4047 22.7701 23.093 22.5519 22.74 22.43L22.62 22.29C21.6595 21.1106 20.9454 19.7504 20.52 18.29C20.35 17.72 20.22 17.16 20.1 16.62C19.8733 15.5614 19.8394 14.4706 20 13.4C20.1435 12.0463 20.0091 10.6775 19.605 9.37754C19.2009 8.07758 18.5357 6.87382 17.65 5.84C14.4 1.92 9.26003 0.82 6.12003 3.39C2.98003 5.96 3.02003 11.21 6.22003 15.13C7.06238 16.2128 8.11852 17.1108 9.32277 17.768C10.527 18.4251 11.8536 18.8275 13.22 18.95C14.3152 19.0159 15.3893 19.2802 16.39 19.73C16.9 19.95 17.39 20.2 17.94 20.48C19.2741 21.1864 20.4511 22.156 21.4 23.33L21.52 23.47C21.5773 23.8111 21.722 24.1315 21.94 24.4L25.78 29.09C25.7029 29.1846 25.6607 29.3029 25.6607 29.425C25.6607 29.5471 25.7029 29.6654 25.78 29.76C25.8585 29.8508 25.965 29.9129 26.0827 29.9365C26.2004 29.96 26.3226 29.9437 26.43 29.89L28.16 28.47C28.2131 28.3736 28.2349 28.2631 28.2224 28.1538C28.2098 28.0445 28.1636 27.9418 28.09 27.86ZM17.18 16.56L16.64 15.9L17.64 15.05L18.02 15.51C17.79 15.8972 17.5073 16.2506 17.18 16.56ZM11 17.31L10.43 16.61L11.43 15.8L12.23 16.8L11.39 17.48L11 17.31ZM8.61003 15.9L9.00003 15.56L9.82003 16.56L9.68003 16.67C9.30633 16.4379 8.94884 16.1806 8.61003 15.9ZM7.37003 14.7L7.94003 14.23L8.75003 15.23L8.28003 15.62C7.95425 15.3364 7.65007 15.0289 7.37003 14.7ZM5.42003 11.42L5.55003 11.31L6.44003 12.39L6.00003 12.75C5.77183 12.3227 5.57789 11.878 5.42003 11.42ZM5.54003 5.88L5.77003 6.16L5.25003 6.59C5.33024 6.34694 5.42713 6.10971 5.54003 5.88ZM5.06003 7.3L6.06003 6.49L6.87003 7.49L5.87003 8.3L5.06003 7.3ZM8.21003 3.47L8.56003 3.88L7.56003 4.73L7.00003 4.11C7.37211 3.8422 7.77926 3.62685 8.21003 3.47ZM11.91 3.36L11.33 3.83L10.78 3.15C11.1614 3.19179 11.5391 3.26198 11.91 3.36ZM13.11 3.77L13.51 4.26L12.41 5.15L11.6 4.15L12.41 3.49C12.64 3.58 12.88 3.67 13.11 3.77ZM15.32 5.14L15 5.4L14.11 4.32C14.5301 4.56782 14.9342 4.84169 15.32 5.14ZM16.69 6.53L16.23 6.91L15.23 5.74L15.6 5.43C15.9912 5.76794 16.3557 6.13571 16.69 6.53ZM5.00003 9.57L5.80003 8.9L6.61003 9.9L5.61003 10.71L5.00003 10V9.57ZM6.15003 8.63L7.15003 7.82L7.96003 8.82L6.96003 9.63L6.15003 8.63ZM12.48 8L13.48 7.16L14.48 8.34L13.48 9.18L12.48 8ZM14.19 10.77L13.19 11.62L12.38 10.62L13.38 9.77L14.19 10.77ZM13.11 9.46L12.11 10.31L11.11 9.13L12.11 8.29L13.11 9.46ZM10.84 8.8L10 7.71L11 6.87L11.88 8L10.84 8.8ZM10.51 9.07L9.42003 10L8.54003 8.87L9.62003 8L10.51 9.07ZM10.78 9.4L11.78 10.58L10.69 11.46L9.69003 10.29L10.78 9.4ZM11.4 13.06L10.4 13.87L9.59003 12.87L10.59 12.06L11.4 13.06ZM10.93 11.8L12 10.91L12.81 11.91L11.73 12.8L10.93 11.8ZM13.09 12.24L13.9 13.24L12.82 14.12L12.01 13.12L13.09 12.24ZM13.43 11.96L14.43 11.12L15.24 12.12L14.24 12.97L13.43 11.96ZM14.8 10.84L15.8 10.01L16.61 11.01L15.61 11.85L14.8 10.84ZM14.52 10.51L13.71 9.51L14.71 8.67L15.52 9.67L14.52 10.51ZM13.84 6.9L14.94 6L15.94 7.17L14.85 8.07L13.84 6.9ZM13.57 6.57L12.68 5.49L13.78 4.59L14.66 5.68L13.57 6.57ZM13.24 6.84L12.24 7.68L11.32 6.6L12.32 5.76L13.24 6.84ZM11.05 6.26L10.24 5.26L11.24 4.42L12.05 5.42L11.05 6.26ZM10.72 6.54L9.72003 7.38L8.91003 6.38L9.91003 5.53L10.72 6.54ZM8.60003 6.06L7.79003 5.06L8.79003 4.22L9.60003 5.22L8.60003 6.06ZM9.35003 7.65L8.27003 8.54L7.46003 7.54L8.54003 6.65L9.35003 7.65ZM8.21003 9.14L9.09003 10.23L8.10003 11L7.21003 10L8.21003 9.14ZM9.36003 10.56L10.36 11.73L9.36003 12.55L8.36003 11.37L9.36003 10.56ZM10.08 14.14L9.08003 14.95L8.27003 13.95L9.27003 13.14L10.08 14.14ZM10.35 14.48L11.16 15.48L10.16 16.29L9.35003 15.29L10.35 14.48ZM10.68 14.2L11.68 13.39L12.49 14.39L11.49 15.2L10.68 14.2ZM12.76 14.72L13.55 15.72L12.55 16.53L11.76 15.53L12.76 14.72ZM13.82 16L14.62 17L13.62 17.81L12.83 16.81L13.82 16ZM13.09 14.43L14.17 13.54L14.97 14.54L13.88 15.43L13.09 14.43ZM14.51 13.27L15.51 12.42L16.31 13.42L15.31 14.27L14.51 13.27ZM15.88 12.15L16.88 11.31L17.68 12.31L16.68 13.15L15.88 12.15ZM18.88 11.34L18 12L17.21 11L18.3 10.11L18.7 10.59C18.78 10.89 18.82 11.13 18.85 11.36L18.88 11.34ZM18 12.64L18.79 13.64L17.79 14.48L16.99 13.48L18 12.64ZM18.33 12.36L18.93 11.88C18.9602 12.2728 18.9602 12.6672 18.93 13.06L18.33 12.36ZM18.44 9.54L17.63 8.54L17.93 8.29C18.1202 8.69445 18.2806 9.11223 18.41 9.54H18.44ZM18.09 9.83L17 10.73L16.18 9.73L17.28 8.84L18.09 9.83ZM15.88 9.4L15.07 8.4L16.17 7.51L16.98 8.51L15.88 9.4ZM10.2 3.12L11 4.12L10 4.96L9.16003 4L10.16 3.17L10.2 3.12ZM8.89003 3.61L8.65003 3.32C8.90596 3.25078 9.16667 3.20064 9.43003 3.17L8.89003 3.61ZM8.27003 6.33L7.18003 7.21L6.37003 6.21L7.46003 5.33L8.27003 6.33ZM5.53003 8.57L4.93003 9.05C4.92305 8.65878 4.94645 8.2676 5.00003 7.88L5.53003 8.57ZM5.89003 11.08L6.89003 10.27L7.78003 11.35L6.78003 12.16L5.89003 11.08ZM8.04003 11.68L9.04003 12.86L8.04003 13.67L7.04003 12.49L8.04003 11.68ZM12.5 17.14L13.08 17.86C12.6778 17.8207 12.2797 17.7471 11.89 17.64L12.5 17.14ZM14.89 17.37L15.15 17.69C14.872 17.7683 14.5875 17.8218 14.3 17.85L14.89 17.37ZM14.16 15.79L15.24 14.9L16.03 15.9L15 16.72L14.16 15.79ZM15.57 14.63L16.57 13.79L17.36 14.79L16.36 15.63L15.57 14.63ZM18.28 15.15L18 14.78L18.61 14.28C18.5225 14.5651 18.4121 14.8426 18.28 15.11V15.15ZM17.67 7.98L17.31 8.28L16.5 7.28L17 6.87C17.2425 7.21429 17.4662 7.57149 17.67 7.94V7.98ZM6.67003 4.43L7.19003 5L6.10003 5.89L5.76003 5.48C6.0107 5.07288 6.32079 4.70549 6.68003 4.39L6.67003 4.43ZM6.21003 13.17L6.70003 12.77L7.70003 13.94L7.12003 14.41C6.78705 14.0075 6.48613 13.5795 6.22003 13.13L6.21003 13.17ZM15.58 17.55L15.21 17.09L16.3 16.21L16.84 16.87C16.4569 17.1433 16.0358 17.359 15.59 17.51L15.58 17.55ZM20.28 20.78H20.23C20.1993 20.8061 20.1603 20.8204 20.12 20.8204C20.0797 20.8204 20.0407 20.8061 20.01 20.78C19.0725 19.8596 17.9467 19.1534 16.71 18.71C16.6802 18.6966 16.6548 18.6748 16.6371 18.6473C16.6193 18.6198 16.6098 18.5877 16.6098 18.555C16.6098 18.5223 16.6193 18.4902 16.6371 18.4627C16.6548 18.4352 16.6802 18.4134 16.71 18.4C17.1024 18.2179 17.4717 17.9896 17.81 17.72C18.1507 17.4227 18.4561 17.0872 18.72 16.72C18.739 16.6932 18.7659 16.6729 18.7968 16.6619C18.8278 16.6508 18.8614 16.6496 18.8931 16.6583C18.9248 16.6671 18.953 16.6854 18.9739 16.7107C18.9948 16.7361 19.0074 16.7672 19.01 16.8C19.2192 18.1054 19.6703 19.3602 20.34 20.5C20.353 20.5189 20.3619 20.5402 20.3664 20.5627C20.3709 20.5851 20.3708 20.6082 20.3661 20.6306C20.3615 20.6531 20.3523 20.6743 20.3392 20.6931C20.3262 20.7119 20.3094 20.7278 20.29 20.74L20.28 20.78Z" fill="#4A5568"/>
</svg>
