<svg width="32" height="32" viewBox="0 0 32 32" fill="none" xmlns="http://www.w3.org/2000/svg">
<path fill-rule="evenodd" clip-rule="evenodd" d="M26.29 4C26.29 3.60444 26.1727 3.21776 25.953 2.88886C25.7332 2.55996 25.4208 2.30362 25.0554 2.15224C24.6899 2.00087 24.2878 1.96126 23.8998 2.03843C23.5119 2.1156 23.1555 2.30608 22.8758 2.58579C22.5961 2.86549 22.4056 3.22186 22.3285 3.60982C22.2513 3.99778 22.2909 4.39992 22.4423 4.76537C22.5936 5.13082 22.85 5.44318 23.1789 5.66294C23.5078 5.8827 23.8945 6 24.29 6C24.8205 6 25.3292 5.78929 25.7042 5.41421C26.0793 5.03914 26.29 4.53043 26.29 4ZM17 10.44C17.3396 10.4492 17.6781 10.3984 18 10.29C18.6732 10.0275 19.2177 9.51329 19.5183 8.85623C19.8188 8.19917 19.8517 7.45091 19.61 6.77C19.4877 6.43096 19.2989 6.11974 19.0547 5.85456C18.8106 5.58938 18.516 5.37556 18.1882 5.22563C17.8604 5.07571 17.506 4.99268 17.1457 4.98141C16.7855 4.97014 16.4266 5.03085 16.09 5.16C15.4879 5.37616 14.9813 5.79763 14.6592 6.35032C14.337 6.90301 14.22 7.55156 14.3286 8.18199C14.4373 8.81242 14.7647 9.38438 15.2532 9.79735C15.7418 10.2103 16.3603 10.4379 17 10.44ZM23.72 6.75L23.39 6.64C23.1866 6.59116 22.973 6.60734 22.7793 6.68627C22.5855 6.7652 22.4214 6.90291 22.31 7.08L20.63 10.58C20.5672 10.696 20.4769 10.7949 20.3671 10.8681C20.2573 10.9413 20.1313 10.9866 20 11L18.34 11.27L15 11.52C14.7672 11.5318 14.5422 11.6079 14.35 11.74L7.83003 17C7.75023 17.0696 7.68654 17.1558 7.64337 17.2525C7.6002 17.3492 7.57859 17.4541 7.58003 17.56C7.58455 17.6644 7.61418 17.7662 7.6664 17.8567C7.71863 17.9472 7.79191 18.0238 7.88003 18.08L8.55003 18.55C8.71779 18.6542 8.91265 18.7064 9.11003 18.7C9.3343 18.7121 9.55512 18.6409 9.73003 18.5L13.3 15.6L12.22 19.9C12.22 19.9 12.22 19.97 12.22 19.99L10.85 23.41C10.6975 23.7429 10.4366 24.0144 10.11 24.18L6.22003 25.65C6.10586 25.6965 6.00301 25.767 5.91847 25.8567C5.83393 25.9464 5.76966 26.0533 5.73003 26.17C5.70563 26.2926 5.71106 26.4193 5.74586 26.5394C5.78067 26.6595 5.84383 26.7694 5.93003 26.86L6.26003 27.25C6.52528 27.5159 6.88448 27.6667 7.26003 27.67C7.39675 27.6743 7.53289 27.6504 7.66003 27.6L11.72 26.15C12.1944 25.9588 12.5846 25.6041 12.82 25.15L14.2 21.95L14.97 21.86L15.17 23.4C15.1978 23.8009 15.1398 24.2032 15 24.58L13 28.86C12.9357 28.9672 12.9017 29.0899 12.9017 29.215C12.9017 29.3401 12.9357 29.4628 13 29.57C13.0574 29.6817 13.1429 29.7764 13.2481 29.8448C13.3534 29.9132 13.4747 29.9529 13.6 29.96H14.12H14.23C14.4669 29.9569 14.6988 29.8915 14.9024 29.7704C15.1061 29.6493 15.2742 29.4767 15.39 29.27L17.39 25.39C17.5804 24.95 17.6888 24.4789 17.71 24V20.77L19.19 13.13L21.43 12.82C21.6328 12.7765 21.8228 12.6872 21.9858 12.5589C22.1487 12.4307 22.2801 12.2668 22.37 12.08L24.14 7.78C24.1847 7.68452 24.2078 7.5804 24.2078 7.475C24.2078 7.3696 24.1847 7.26548 24.14 7.17C24.098 7.06933 24.034 6.97934 23.9527 6.90666C23.8714 6.83398 23.7748 6.78045 23.67 6.75H23.72Z" fill="#4A5568"/>
</svg>
