<svg width="32" height="32" viewBox="0 0 32 32" fill="none" xmlns="http://www.w3.org/2000/svg">
<path d="M21.65 27.9C21.6603 27.8069 21.6603 27.713 21.65 27.62C21.6352 27.4542 21.584 27.2937 21.5 27.15C21.2618 26.8046 20.9425 26.523 20.57 26.33C20.1876 26.1059 19.8488 25.8145 19.57 25.47C19.07 24.78 19.49 24.01 19.2 23.27C19.1422 23.0637 19.0196 22.8814 18.8504 22.7499C18.6812 22.6185 18.4742 22.5449 18.26 22.54L17.51 15.89H18C18.2 15.89 19.05 15.67 19.05 15.43C19.0541 15.3774 19.0477 15.3246 19.0313 15.2745C19.0149 15.2244 18.9888 15.178 18.9544 15.1381C18.92 15.0981 18.8781 15.0653 18.831 15.0416C18.7839 15.0179 18.7326 15.0038 18.68 15H18.51C18.5202 14.9573 18.5202 14.9127 18.51 14.87C18.51 14.8297 18.5019 14.7899 18.4862 14.7528C18.4705 14.7158 18.4475 14.6822 18.4186 14.6543C18.3897 14.6263 18.3554 14.6044 18.3179 14.5899C18.2803 14.5754 18.2402 14.5687 18.2 14.57H17.39L17.27 13.52H18.15C18.2322 13.52 18.311 13.4873 18.3692 13.4292C18.4273 13.3711 18.46 13.2922 18.46 13.21C18.46 13.1278 18.4273 13.0489 18.3692 12.9908C18.311 12.9327 18.2322 12.9 18.15 12.9H17.86L20 9.3C20.0329 9.22441 20.0488 9.14248 20.0464 9.06007C20.044 8.97765 20.0234 8.89677 19.9862 8.82321C19.9489 8.74966 19.8959 8.68523 19.8309 8.63455C19.7658 8.58386 19.6904 8.54816 19.61 8.53L18.13 8.2C17.9 8.2 17.67 8.11 17.43 8.08V8C17.43 7.84352 17.3678 7.69345 17.2572 7.58281C17.1465 7.47216 16.9964 7.41 16.84 7.41L16.67 6.69H18C18.0884 6.69004 18.1734 6.65559 18.2369 6.59398C18.3004 6.53236 18.3374 6.44843 18.34 6.36V4.86C18.34 4.81581 18.3311 4.77206 18.3139 4.73136C18.2967 4.69066 18.2715 4.65382 18.2398 4.62305C18.2081 4.59227 18.1705 4.56817 18.1293 4.55219C18.0881 4.53621 18.0441 4.52866 18 4.53H16.83L17 3.07C17.014 3.04208 17.0214 3.01126 17.0214 2.98C17.0214 2.94874 17.014 2.91791 17 2.89L16.12 2.06C16.1022 2.0406 16.0805 2.02511 16.0564 2.01452C16.0323 2.00392 16.0063 1.99845 15.98 1.99845C15.9536 1.99845 15.9276 2.00392 15.9035 2.01452C15.8794 2.02511 15.8578 2.0406 15.84 2.06L14.95 2.89C14.9277 2.91401 14.9109 2.94248 14.9005 2.97352C14.8902 3.00456 14.8866 3.03745 14.89 3.07L15.11 4.54H13.91C13.8224 4.54 13.7385 4.57477 13.6766 4.63665C13.6147 4.69854 13.58 4.78248 13.58 4.87V6.39C13.58 6.47752 13.6147 6.56146 13.6766 6.62334C13.7385 6.68523 13.8224 6.72 13.91 6.72H15.29L15.12 7.44C15.0421 7.43864 14.9648 7.45298 14.8926 7.48215C14.8204 7.51132 14.7548 7.55473 14.6998 7.60979C14.6447 7.66485 14.6013 7.73043 14.5721 7.80262C14.543 7.87482 14.5286 7.95215 14.53 8.03C14.25 8.03 13.98 8.12 13.71 8.18L12.33 8.5C12.2508 8.51808 12.1765 8.55349 12.1127 8.60367C12.0488 8.65385 11.9968 8.71757 11.9604 8.79024C11.9241 8.8629 11.9043 8.94272 11.9025 9.02394C11.9007 9.10517 11.9169 9.18578 11.95 9.26L14 12.89H13.71C13.6278 12.89 13.5489 12.9227 13.4908 12.9808C13.4326 13.0389 13.4 13.1178 13.4 13.2C13.3999 13.2403 13.408 13.2801 13.4237 13.3172C13.4394 13.3542 13.4624 13.3878 13.4913 13.4157C13.5203 13.4437 13.5545 13.4656 13.5921 13.4801C13.6297 13.4946 13.6697 13.5013 13.71 13.5H14.55L14.45 14.55H13.76C13.7193 14.55 13.679 14.558 13.6413 14.5736C13.6037 14.5892 13.5696 14.612 13.5408 14.6408C13.512 14.6696 13.4891 14.7038 13.4736 14.7414C13.458 14.779 13.45 14.8193 13.45 14.86C13.4408 14.9028 13.4408 14.9472 13.45 14.99H13.37C13.3174 14.9938 13.2661 15.0079 13.219 15.0316C13.1719 15.0553 13.1299 15.0881 13.0956 15.1281C13.0612 15.168 13.035 15.2144 13.0186 15.2645C13.0022 15.3146 12.9959 15.3674 13 15.42C13 15.66 13.84 15.88 14 15.88H14.25L13.64 22.44C13.433 22.465 13.2369 22.5463 13.0729 22.675C12.909 22.8037 12.7834 22.9749 12.71 23.17C12.42 23.91 12.84 24.68 12.34 25.37C12.0622 25.7183 11.7233 26.0131 11.34 26.24C10.9632 26.4268 10.6424 26.7096 10.41 27.06C10.3337 27.1844 10.2829 27.3227 10.2606 27.4669C10.2382 27.6111 10.2448 27.7584 10.28 27.9C10.0531 27.9532 9.85046 28.0803 9.70382 28.2614C9.55718 28.4424 9.47491 28.6671 9.46997 28.9C9.4698 29.0356 9.49723 29.1699 9.55058 29.2946C9.60393 29.4193 9.6821 29.5318 9.78032 29.6254C9.87854 29.7189 9.99476 29.7915 10.1219 29.8387C10.2491 29.8859 10.3845 29.9068 10.52 29.9H21.34C21.4754 29.9068 21.6109 29.8859 21.738 29.8387C21.8652 29.7915 21.9814 29.7189 22.0796 29.6254C22.1778 29.5318 22.256 29.4193 22.3094 29.2946C22.3627 29.1699 22.3901 29.0356 22.39 28.9C22.3893 28.6762 22.3171 28.4585 22.184 28.2786C22.0509 28.0987 21.8638 27.9661 21.65 27.9Z" fill="#4A5568"/>
</svg>
