<svg width="32" height="32" viewBox="0 0 32 32" fill="none" xmlns="http://www.w3.org/2000/svg">
<path d="M18.1048 15.9824L18.0883 15.9989L18.1048 16.0155L24.0461 21.953C24.3235 22.2304 24.4793 22.6066 24.4793 22.9989C24.4793 23.3912 24.3235 23.7675 24.0461 24.0449C23.7687 24.3223 23.3925 24.4781 23.0002 24.4781C22.6079 24.4781 22.2316 24.3223 21.9542 24.0449L16.0167 18.1074L16.0002 18.0908L15.9836 18.1074L10.0461 24.0449C9.76869 24.3223 9.39246 24.4781 9.00016 24.4781C8.60786 24.4781 8.23163 24.3223 7.95423 24.0449C7.67684 23.7675 7.521 23.3912 7.521 22.9989C7.521 22.6066 7.67684 22.2304 7.95423 21.953L13.8917 16.0155L13.9083 15.9989L13.8917 15.9824L7.95423 10.0449C7.67684 9.76747 7.521 9.39124 7.521 8.99894C7.521 8.60664 7.67684 8.23041 7.95423 7.95301C8.23163 7.67562 8.60786 7.51978 9.00016 7.51978C9.39246 7.51978 9.76869 7.67562 10.0461 7.95301L15.9836 13.8905L16.0002 13.9071L16.0167 13.8905L21.9542 7.95303C22.2316 7.67612 22.6076 7.52076 22.9996 7.5211C23.3915 7.52145 23.7673 7.67748 24.0442 7.95487C24.3211 8.23227 24.4765 8.6083 24.4761 9.00024C24.4758 9.39219 24.3197 9.76795 24.0423 10.0449L24.0423 10.0449L18.1048 15.9824Z" fill="white" stroke="white" stroke-width="0.046875"/>
</svg>
