<svg width="489" height="511" viewBox="0 0 489 511" fill="none" xmlns="http://www.w3.org/2000/svg">
<path fill-rule="evenodd" clip-rule="evenodd" d="M384.927 29.0032C382.524 34.7172 381.297 40.8451 381.322 47.0344C381.297 53.2237 382.524 59.3517 384.927 65.0657C387.335 70.7934 390.874 75.9849 395.328 80.3486C399.781 84.7118 405.062 88.162 410.861 90.5121C416.66 92.862 422.87 94.0689 429.136 94.0689C435.402 94.0689 441.612 92.862 447.411 90.5121C453.21 88.162 458.491 84.7118 462.945 80.3486C467.398 75.9849 470.937 70.7934 473.346 65.0657C475.748 59.3517 476.975 53.2237 476.951 47.0344C476.975 40.8451 475.748 34.7172 473.346 29.0032C470.937 23.2755 467.398 18.084 462.945 13.7203C458.491 9.35711 453.21 5.90688 447.411 3.55678C441.612 1.20688 435.402 0 429.136 0C422.87 0 416.66 1.20688 410.861 3.55678C405.062 5.90688 399.781 9.35711 395.328 13.7203C390.874 18.084 387.335 23.2755 384.927 29.0032ZM182.703 65.71C180.502 70.9454 179.378 76.56 179.4 82.2308C179.378 87.9016 180.502 93.5162 182.703 98.7516C184.91 103.999 188.152 108.756 192.233 112.754C196.313 116.752 201.152 119.913 206.465 122.066C211.778 124.219 217.468 125.325 223.209 125.325C228.951 125.325 234.641 124.219 239.954 122.066C245.267 119.913 250.105 116.752 254.186 112.754C258.267 108.756 261.509 103.999 263.715 98.7516C265.917 93.5162 267.041 87.9016 267.018 82.2308C267.041 76.56 265.917 70.9454 263.715 65.71C261.509 60.4621 258.267 55.7054 254.186 51.7073C250.105 47.7096 245.267 44.5484 239.954 42.3952C234.641 40.2421 228.951 39.1364 223.209 39.1364C217.468 39.1364 211.778 40.2421 206.465 42.3952C201.152 44.5484 196.313 47.7096 192.233 51.7073C188.152 55.7054 184.91 60.4621 182.703 65.71ZM471.263 99.8599C461.38 93.6621 448.344 96.6495 442.146 106.532L387.396 193.836L298.782 143.623C295.232 141.612 291.176 140.671 287.104 140.916L198.612 146.225C196.319 146.363 194.062 146.874 191.933 147.738L13.1831 220.299C2.37424 224.686 -2.83118 237.006 1.55652 247.815C5.94418 258.623 18.2635 263.829 29.0723 259.441L196.906 191.312C196.547 193.019 196.399 194.778 196.475 196.552L201.329 309.793L117.586 377.431C112.868 381.242 110.015 386.896 109.755 392.955C109.494 399.014 111.85 404.893 116.223 409.094L206.482 495.814C214.894 503.896 228.265 503.629 236.348 495.217C244.43 486.805 244.162 473.434 235.75 465.351L162.774 395.236L236.16 335.963C238.831 333.805 240.897 331.063 242.237 328.001L321.236 429.819C322.965 432.048 325.122 433.907 327.581 435.288L456.775 507.848C466.946 513.561 479.823 509.946 485.535 499.775C491.248 489.604 487.633 476.728 477.462 471.015L351.994 400.547L279.513 307.131L281.172 195.962C281.237 191.605 279.954 187.368 277.546 183.81L283.394 183.459L384.145 240.549C393.976 246.12 406.449 242.967 412.453 233.395L477.935 128.976C484.133 119.094 481.146 106.058 471.263 99.8599Z" fill="black" fill-opacity="0.03"/>
</svg>
